<svg width="83" height="49" viewBox="0 0 83 49" fill="none" xmlns="http://www.w3.org/2000/svg" name="brand"><path d="M50.4178 19.2446C53.6434 19.2446 55.8781 21.9758 55.8781 25.1123C55.8781 28.27 53.6646 30.9158 50.4599 30.9158C49.2189 30.9158 47.9361 30.4699 47.1139 29.515C47.1115 29.5122 47.1078 29.5136 47.1078 29.517V32.8574C47.1078 34.1342 46.085 35.1692 44.8234 35.1692H43.2708V19.6073H47.1078V20.8173C47.1078 20.8326 47.1199 20.8449 47.135 20.8449C47.1438 20.8449 47.1529 20.8401 47.158 20.8326C47.8553 19.7529 49.1577 19.2446 50.4178 19.2446ZM63.742 19.2446C66.9675 19.2446 69.2023 21.9758 69.2023 25.1123C69.2023 28.27 66.9887 30.9158 63.7841 30.9158C62.5639 30.9158 61.3033 30.4849 60.4793 29.5624C60.4629 29.5433 60.4319 29.5549 60.4319 29.5804V32.8574C60.4319 34.1342 59.4091 35.1692 58.1476 35.1692H56.6223C56.6071 35.1692 56.595 35.157 56.595 35.1416V19.6349C56.595 19.6199 56.6071 19.6073 56.6223 19.6073H60.4046C60.4197 19.6073 60.4319 19.6199 60.4319 19.6349V20.8173C60.4319 20.8326 60.4441 20.8449 60.4592 20.8449C60.4682 20.8449 60.477 20.8401 60.4821 20.8326C61.1798 19.7529 62.4818 19.2446 63.742 19.2446ZM10.9885 14.0386C12.5821 14.0386 14.5305 14.5453 15.9413 15.3485C15.9539 15.3556 15.9589 15.372 15.9521 15.3849L15.3647 16.5434C14.8621 17.5348 13.7329 18.0186 12.6768 17.7022C12.3223 17.5962 11.9535 17.5379 11.5789 17.5379C10.82 17.5379 9.80795 17.9858 9.80795 18.8822C9.80795 19.8207 10.9254 20.1835 11.6419 20.4184L12.6963 20.7382C14.9099 21.3999 16.6175 22.5304 16.6175 25.1338C16.6175 26.7337 16.2382 28.3766 14.9732 29.4649C13.7292 30.5316 12.0637 30.9799 10.4615 30.9799C8.46693 30.9799 6.51372 30.3026 4.89444 29.1591C4.883 29.1509 4.87961 29.1355 4.88602 29.1233L6.64548 25.774C7.67867 26.6911 8.90121 27.4381 10.3136 27.4381C11.2838 27.4381 12.3167 26.9471 12.3167 25.8166C12.3167 24.6428 10.6933 24.2374 9.80795 23.9814C7.21481 23.2348 5.5069 22.5519 5.5069 19.4369C5.5069 16.1721 7.80502 14.0386 10.9885 14.0386ZM34.9077 19.2446C36.1272 19.2446 37.4073 19.696 38.2121 20.6182C38.2289 20.6373 38.2599 20.6257 38.2599 20.6001V19.6349C38.2599 19.6199 38.2723 19.6073 38.2872 19.6073H42.0699C42.085 19.6073 42.0972 19.6199 42.0972 19.6349V28.2413C42.0972 29.5181 41.0744 30.5531 39.8125 30.5531H38.2872C38.2723 30.5531 38.2599 30.5408 38.2599 30.5255V29.3646C38.2599 29.3493 38.2478 29.337 38.2326 29.337C38.2235 29.337 38.2147 29.3418 38.2101 29.3497C37.533 30.4291 36.2101 30.9158 34.9502 30.9158C31.7456 30.9158 29.4895 28.2062 29.4895 25.0697C29.4895 21.9331 31.7031 19.2446 34.9077 19.2446ZM72.3891 26.0014C73.7288 26.0014 74.8166 27.1023 74.8166 28.4581C74.8166 29.814 73.7288 30.9152 72.3891 30.9152C71.049 30.9152 69.9612 29.814 69.9612 28.4581C69.9612 27.1023 71.049 26.0014 72.3891 26.0014ZM24.6925 19.2446C27.6017 19.2446 28.7613 21.1009 28.7613 23.7894V28.2413C28.7613 29.5181 27.7385 30.5531 26.477 30.5531H24.9515C24.9364 30.5531 24.9243 30.5409 24.9243 30.5255V25.219C24.9243 24.1734 25.0931 22.3385 23.1955 22.3385C21.6354 22.3385 21.1924 23.5119 21.1924 24.8777V28.2413C21.1924 29.5181 20.1701 30.5531 18.9085 30.5531H17.3828C17.3677 30.5531 17.3555 30.5409 17.3555 30.5255V19.6349C17.3555 19.62 17.3677 19.6074 17.3828 19.6074H21.1652C21.1804 19.6074 21.1924 19.62 21.1924 19.6349V20.9881C21.1924 20.9983 21.198 21.0072 21.2062 21.012L21.2204 21.0157C21.2295 21.0157 21.238 21.0109 21.243 21.0035C22.1269 19.6902 23.2002 19.2446 24.6925 19.2446ZM35.9196 22.616C34.3596 22.616 33.4531 23.7469 33.4531 25.0908C33.4531 26.4777 34.3596 27.5448 35.9196 27.5448C37.48 27.5448 38.3866 26.4777 38.3866 25.0908C38.3866 23.7469 37.48 22.616 35.9196 22.616ZM49.448 22.616C47.8876 22.616 46.9811 23.7469 46.9811 25.0908C46.9811 26.4777 47.8876 27.5448 49.448 27.5448C51.008 27.5448 51.9146 26.4777 51.9146 25.0908C51.9146 23.7469 51.008 22.616 49.448 22.616ZM62.772 22.616C61.2117 22.616 60.3055 23.7469 60.3055 25.0908C60.3055 26.4777 61.2117 27.5448 62.772 27.5448C64.3322 27.5448 65.239 26.4777 65.239 25.0908C65.239 23.7469 64.3322 22.616 62.772 22.616ZM77.631 14.4655L75.4747 22.8305C75.2234 23.8162 74.369 24.5164 73.3736 24.5688L73.2534 24.5719H71.0918L73.692 14.4655H77.631ZM71.7491 14.4663L71.9499 14.998L72.1506 14.4663H72.4639V15.3651H72.2698V14.6398H72.2654L72.0071 15.3651H71.8925L71.6343 14.6398H71.6299V15.3651H71.4358V14.4663H71.7491ZM71.3275 14.4663V14.6398H71.0562V15.3651H70.8423V14.6398H70.5708V14.4663H71.3275Z" fill="#0048D9"></path></svg>